<svg width="1545" height="96" viewBox="0 0 1545 96" fill="none" xmlns="http://www.w3.org/2000/svg">
<g clip-path="url(#clip0_338_1458)">
<path d="M634.812 58.6666H642.811V48H633.843C626.812 48 621.478 53.3338 621.478 58.6666V64.0003H613.479V74.6669H621.478V96H632.145V74.6669H640.144V64.0003H632.145V61.3334C632.145 59.6717 633.9 58.6666 634.812 58.6666Z" fill="#0091DC"/>
</g>
<g clip-path="url(#clip1_338_1458)">
<path d="M716.264 72C716.264 67.5819 719.845 63.9994 724.263 63.9994C728.681 63.9994 732.263 67.5819 732.263 72C732.263 76.4181 728.681 80.0006 724.263 80.0006C719.845 80.0006 716.264 76.4181 716.264 72ZM711.939 72C711.939 78.8065 717.456 84.3237 724.263 84.3237C731.069 84.3237 736.586 78.8065 736.586 72C736.586 65.1935 731.069 59.6763 724.263 59.6763C717.456 59.6763 711.939 65.1935 711.939 72ZM734.194 59.1877C734.194 60.7774 735.483 62.0685 737.075 62.0685C738.665 62.0685 739.956 60.7774 739.956 59.1877C739.956 57.5981 738.667 56.3089 737.075 56.3089C735.483 56.3089 734.194 57.5981 734.194 59.1877ZM714.566 91.5354C712.226 91.4288 710.954 91.0391 710.109 90.7095C708.988 90.2733 708.19 89.7538 707.348 88.9144C706.509 88.075 705.987 87.2763 705.553 86.1557C705.224 85.3105 704.834 84.0388 704.727 81.6989C704.611 79.169 704.588 78.409 704.588 72C704.588 65.591 704.613 64.833 704.727 62.3011C704.834 59.9612 705.226 58.6914 705.553 57.8443C705.989 56.7237 706.509 55.925 707.348 55.0837C708.188 54.2443 708.986 53.7228 710.109 53.2885C710.954 52.959 712.226 52.5693 714.566 52.4627C717.096 52.3464 717.856 52.3231 724.263 52.3231C730.672 52.3231 731.43 52.3483 733.962 52.4627C736.301 52.5693 737.571 52.9609 738.418 53.2885C739.539 53.7228 740.338 54.2443 741.179 55.0837C742.018 55.9231 742.538 56.7237 742.974 57.8443C743.304 58.6895 743.693 59.9612 743.8 62.3011C743.916 64.833 743.94 65.591 743.94 72C743.94 78.4071 743.916 79.167 743.8 81.6989C743.693 84.0388 743.302 85.3105 742.974 86.1557C742.538 87.2763 742.018 88.075 741.179 88.9144C740.34 89.7538 739.539 90.2733 738.418 90.7095C737.573 91.0391 736.301 91.4288 733.962 91.5354C731.432 91.6517 730.672 91.675 724.263 91.675C717.856 91.675 717.096 91.6517 714.566 91.5354ZM714.368 48.1454C711.813 48.2617 710.068 48.6669 708.543 49.2601C706.964 49.8727 705.627 50.6947 704.291 52.0284C702.957 53.3622 702.135 54.6998 701.523 56.2798C700.93 57.8055 700.524 59.5502 700.408 62.1053C700.29 64.6643 700.263 65.4824 700.263 72C700.263 78.5176 700.29 79.3357 700.408 81.8947C700.524 84.4498 700.93 86.1945 701.523 87.7202C702.135 89.2982 702.955 90.6378 704.291 91.9716C705.625 93.3053 706.963 94.1254 708.543 94.7399C710.07 95.3331 711.813 95.7383 714.368 95.8546C716.929 95.9709 717.745 96 724.263 96C730.782 96 731.598 95.9729 734.157 95.8546C736.712 95.7383 738.457 95.3331 739.983 94.7399C741.561 94.1254 742.899 93.3053 744.234 91.9716C745.568 90.6378 746.388 89.2982 747.003 87.7202C747.596 86.1945 748.003 84.4498 748.117 81.8947C748.234 79.3338 748.261 78.5176 748.261 72C748.261 65.4824 748.234 64.6643 748.117 62.1053C748.001 59.5502 747.596 57.8055 747.003 56.2798C746.388 54.7018 745.568 53.3641 744.234 52.0284C742.9 50.6947 741.561 49.8727 739.985 49.2601C738.457 48.6669 736.712 48.2598 734.159 48.1454C731.6 48.0291 730.782 48 724.265 48C717.745 48 716.929 48.0271 714.368 48.1454Z" fill="#0091DC"/>
</g>
<g clip-path="url(#clip2_338_1458)">
<path d="M797.052 63.9379H807.008V96H797.052V63.9379ZM802.033 48C800.89 47.9972 799.771 48.3337 798.819 48.967C797.866 49.6004 797.123 50.502 796.684 51.5578C796.244 52.6137 796.128 53.7762 796.349 54.8982C796.571 56.0202 797.12 57.0513 797.928 57.861C798.735 58.6706 799.765 59.2224 800.887 59.4464C802.008 59.6705 803.171 59.5567 804.228 59.1196C805.285 58.6825 806.188 57.9416 806.824 56.9908C807.459 56.0399 807.798 54.9219 807.798 53.7783C807.799 53.0203 807.651 52.2696 807.362 51.5689C807.072 50.8683 806.648 50.2315 806.113 49.6949C805.577 49.1583 804.942 48.7325 804.242 48.4417C803.542 48.1508 802.791 48.0008 802.033 48ZM832.331 63.1421C827.492 63.1421 824.246 65.8003 822.923 68.3213H822.787V63.936H813.249V96H823.183V80.1418C823.183 75.9591 823.973 71.9069 829.149 71.9069C834.253 71.9069 834.317 76.6906 834.317 80.4077V96H844.263V78.4167C844.263 69.7815 842.401 63.1421 832.331 63.1421Z" fill="#0091DC"/>
</g>
<g clip-path="url(#clip3_338_1458)">
<path d="M897.201 87.8092C895.39 87.2159 894.17 86.0265 893.516 84.2294C891.921 79.8422 891.449 61.4879 894.52 57.8774C895.522 56.6626 896.964 55.8948 898.531 55.7423C906.809 54.8543 932.39 54.9801 935.34 56.0428C937.068 56.663 938.294 57.7939 938.959 59.5247C940.705 64.0598 940.765 80.5603 938.73 84.9283C938.176 86.1139 937.277 86.9443 936.133 87.5471C933.046 89.1657 901.264 89.1455 897.201 87.8092ZM910.353 79.2067C915.328 76.6252 920.263 74.0668 925.26 71.4767C920.256 68.8646 915.321 66.2927 910.353 63.7007V79.2067Z" fill="#0091DC"/>
</g>
<defs>
<clipPath id="clip0_338_1458">
<rect width="48" height="48" fill="white" transform="translate(604.263 48)"/>
</clipPath>
<clipPath id="clip1_338_1458">
<rect width="48" height="48" fill="white" transform="translate(700.263 48)"/>
</clipPath>
<clipPath id="clip2_338_1458">
<rect width="48" height="48" fill="white" transform="translate(796.263 48)"/>
</clipPath>
<clipPath id="clip3_338_1458">
<rect width="48" height="48" fill="white" transform="translate(892.263 48)"/>
</clipPath>
</defs>
</svg>
