<svg width="22" height="22" viewBox="0 0 22 22" fill="none" xmlns="http://www.w3.org/2000/svg">
<path d="M10.9999 1.43652C9.10847 1.43652 7.25948 1.99741 5.68679 3.04825C4.11409 4.09909 2.88833 5.59269 2.1645 7.34017C1.44067 9.08765 1.25128 11.0105 1.62029 12.8657C1.98929 14.7208 2.90012 16.4248 4.23758 17.7623C5.57505 19.0997 7.27908 20.0106 9.1342 20.3796C10.9893 20.7486 12.9122 20.5592 14.6597 19.8354C16.4072 19.1115 17.9008 17.8858 18.9516 16.3131C20.0024 14.7404 20.5633 12.8914 20.5633 10.9999C20.5633 8.46355 19.5558 6.03106 17.7623 4.23758C15.9688 2.44409 13.5363 1.43652 10.9999 1.43652ZM12.3661 17.8265H9.63373V9.63372H12.3661V17.8265ZM12.3661 6.89692H9.63373V4.16892H12.3661V6.89692Z" fill="white"/>
</svg>
